<?xml version="1.0" standalone="no"?>

<!DOCTYPE svg PUBLIC "-//W3C//DTD SVG 20010904//EN"

 "http://www.w3.org/TR/2001/REC-SVG-20010904/DTD/svg10.dtd">

<svg version="1.0" xmlns="http://www.w3.org/2000/svg"

 width="510.000000pt" height="510.000000pt" viewBox="0 0 510.000000 510.000000"

 preserveAspectRatio="xMidYMid meet">

<path fill="#4a3046" stroke="none" d="
M0 255

L0 0

L255 0

L510 0

L510 255

L510 510

L255 510

L0 510

L0 255

Z

"/>

<path fill="#f7eee7" stroke="none" d="
M0 255

L0 0

L112 0

L225 0

L226 9

C228 23 227 23 205 28

C187 33 167 43 158 54

C149 65 144 78 146 90

C147 97 153 108 158 114

C160 117 166 121 170 124

C185 134 197 139 220 145

C232 148 236 150 237 154

C238 155 238 166 238 178

C238 203 238 202 229 205

C219 207 215 209 204 214

C195 218 193 220 186 227

C175 239 168 254 168 270

C168 285 173 295 185 306

C194 314 202 318 218 322

C232 325 236 327 238 330

C239 332 240 339 240 352

C240 370 240 371 238 373

C237 375 231 378 225 380

C213 386 201 394 197 399

C192 406 191 413 192 420

C193 427 197 432 205 438

C212 443 219 446 231 450

C243 453 245 454 246 459

C248 467 249 479 248 483

C247 488 244 489 235 491

C230 492 225 494 223 494

L219 496

L219 497

L220 498

L224 499

C226 500 232 500 237 500

C248 500 251 501 252 507

L252 510

L126 510

L0 510

L0 255

Z

M265 509

C265 509 265 507 266 505

C268 499 271 496 280 494

C289 491 297 486 300 482

C302 479 305 470 305 465

C305 460 301 449 298 446

C296 445 291 441 287 439

C278 434 274 430 274 426

C274 422 272 418 271 417

C270 417 264 419 258 421

C248 425 246 425 241 425

C235 424 232 422 232 418

C232 412 245 405 260 401

C286 394 311 380 319 367

C324 360 326 351 326 340

C326 328 325 324 320 317

C316 311 303 302 298 301

C288 300 282 298 280 295

C279 293 279 290 281 261

C281 251 281 251 279 249

C275 247 271 248 256 255

C247 258 242 261 240 263

C237 266 237 266 237 277

L237 288

L235 288

C233 289 229 287 223 280

C215 271 214 266 220 259

C227 251 243 244 268 238

C296 232 300 231 311 226

C338 215 349 202 349 179

C349 165 344 153 333 143

C322 132 312 125 299 121

C291 118 284 114 283 111

C282 109 282 106 283 101

C285 82 284 79 271 76

C263 74 243 73 240 75

C237 77 236 82 236 91

L237 99

L235 99

C234 99 217 94 208 90

C200 88 196 84 195 80

C194 77 198 72 205 69

C222 61 248 58 276 61

C306 65 308 65 317 64

C333 62 342 58 346 51

C350 45 350 42 349 35

C347 25 336 17 321 13

C316 12 309 11 306 10

C292 9 292 9 291 5

C290 3 290 1 290 1

L290 0

L400 0

L510 0

L510 255

L510 510

L388 510

L265 510

L265 509

Z

M233 280

C233 278 233 275 233 272

C233 267 232 266 230 265

L227 264

L225 265

C222 269 226 282 231 282

L232 282

L233 280

Z

M269 472

C268 469 270 465 272 464

L274 463

L276 465

C280 468 278 471 273 472

L270 473

L269 472

Z

M276 350

C276 345 276 341 277 340

L278 337

L280 337

C283 337 287 341 287 345

C287 348 286 350 283 353

C281 355 279 357 278 357

L276 357

L276 350

Z

M283 191

C281 188 282 168 284 166

L285 165

L289 167

C295 170 301 176 301 179

C301 183 298 187 292 190

C287 194 284 194 283 191

Z

M290 184

L290 182

L289 182

L287 182

L287 184

L287 186

L289 186

L290 186

L290 184

Z

"/>

</svg>

